<?xml version="1.0" encoding="utf-8"?>
<!-- Generator: Adobe Illustrator 26.4.1, SVG Export Plug-In . SVG Version: 6.00 Build 0)  -->
<svg version="1.1" id="Layer_2" xmlns="http://www.w3.org/2000/svg" xmlns:xlink="http://www.w3.org/1999/xlink" x="0px" y="0px"
	 viewBox="0 0 1023.97 1024" style="enable-background:new 0 0 1023.97 1024;" xml:space="preserve">
<style type="text/css">
	.st0{fill:url(#SVGID_1_);}
	.st1{fill:url(#SVGID_00000101081348076993241090000009100649059826969522_);}
	.st2{fill:url(#SVGID_00000084506909459517848100000002221596199174487202_);}
	.st3{fill:url(#SVGID_00000014623582165365556660000007936320126439347384_);}
</style>
<linearGradient id="SVGID_1_" gradientUnits="userSpaceOnUse" x1="780.8788" y1="366.5511" x2="543.7238" y2="-106.8471">
	<stop  offset="0" style="stop-color:#2AF588"/>
	<stop  offset="1" style="stop-color:#334675"/>
</linearGradient>
<path class="st0" d="M853.42,341.35H512.09c-94.25,0-170.66-76.41-170.66-170.66v0c0-94.25,76.41-170.66,170.66-170.66l341.33,0
	c94.25,0,170.66,76.41,170.66,170.66v0C1024.08,264.94,947.67,341.35,853.42,341.35z"/>
<linearGradient id="SVGID_00000024718612327841456470000005961514659789017267_" gradientUnits="userSpaceOnUse" x1="1059.9342" y1="865.6629" x2="573.0198" y2="31.9459">
	<stop  offset="0" style="stop-color:#2AF588"/>
	<stop  offset="1" style="stop-color:#405A9B"/>
</linearGradient>
<path style="fill:url(#SVGID_00000024718612327841456470000005961514659789017267_);" d="M1024.03,166.49
	c-1.06-57.21-32.38-111.4-81.18-141.2C916.84,9.26,886.21,0,853.42,0C852,0.06,513.74,0.01,512.1,0.02
	c94.24,0,170.64,76.4,170.66,170.64c-0.02-0.02,0.02,170.68,0,170.69c0,0,0,511.99,0,511.99c0,94.25,76.41,170.66,170.66,170.66
	c94.25,0,170.66-76.41,170.66-170.66C1022.89,847.37,1025.01,171.7,1024.03,166.49z"/>
<linearGradient id="SVGID_00000090982186882451364850000004537934093713842077_" gradientUnits="userSpaceOnUse" x1="397.5838" y1="346.9354" x2="160.4288" y2="-126.4628" gradientTransform="matrix(-1 0 0 -1 641.0007 1004.3826)">
	<stop  offset="0" style="stop-color:#2AF588"/>
	<stop  offset="1" style="stop-color:#334675"/>
</linearGradient>
<path style="fill:url(#SVGID_00000090982186882451364850000004537934093713842077_);" d="M170.88,682.65H512.2
	c94.25,0,170.66,76.41,170.66,170.66v0c0,94.25-76.41,170.66-170.66,170.66H170.88c-94.25,0-170.66-76.41-170.66-170.66v0
	C0.21,759.06,76.62,682.65,170.88,682.65z"/>
<linearGradient id="SVGID_00000152949096568140675490000004756356416270538901_" gradientUnits="userSpaceOnUse" x1="676.6392" y1="846.0472" x2="189.7249" y2="12.3302" gradientTransform="matrix(-1 0 0 -1 641.0007 1004.3826)">
	<stop  offset="0" style="stop-color:#2AF588"/>
	<stop  offset="1" style="stop-color:#405A9B"/>
</linearGradient>
<path style="fill:url(#SVGID_00000152949096568140675490000004756356416270538901_);" d="M0.27,857.51
	c1.06,57.21,32.38,111.4,81.18,141.2c26.01,16.03,56.64,25.29,89.43,25.29c1.42-0.06,339.68-0.01,341.32-0.02
	c-94.24,0-170.64-76.4-170.66-170.64c0.02,0.02-0.02-170.68,0-170.69c0,0,0-511.99,0-511.99C341.54,76.41,265.13,0,170.88,0
	C76.62,0,0.21,76.41,0.21,170.66C1.41,176.63-0.71,852.3,0.27,857.51z"/>
</svg>
