<svg viewBox="0 0 200 258" fill="none" xmlns="http://www.w3.org/2000/svg">
<g filter="url(#filter0_d_120_154)">
<g filter="url(#filter1_f_120_154)">
<path d="M19 132.503C19 117.025 31.5593 104.478 47.0519 104.478H152.948C168.441 104.478 181 117.025 181 132.503V210.975C181 226.453 168.441 239 152.948 239H47.052C31.5593 239 19 226.453 19 210.975V132.503Z" fill="#2AF588"/>
<path fill-rule="evenodd" clip-rule="evenodd" d="M77.9552 49.3429C73.1919 53.3053 69.4934 59.3541 69.4934 69.2995V104.478H130.702V69.2995C130.702 59.3541 127.004 53.3053 122.241 49.3429C116.945 44.9378 108.996 42.121 100.098 42.121C91.2 42.121 83.2506 44.9378 77.9552 49.3429ZM153.845 69.2995C153.845 2.2335 46.3506 2.23349 46.3506 69.2995V127.599H153.845V69.2995Z" fill="#2AF588"/>
<path d="M120.688 153.873C120.688 165.288 111.426 174.541 100 174.541C88.5742 174.541 79.3118 165.288 79.3118 153.873C79.3118 142.458 88.5742 133.204 100 133.204C111.426 133.204 120.688 142.458 120.688 153.873Z" fill="#26282C"/>
<path d="M92.633 173.62C93.0491 172.096 94.4347 171.038 96.016 171.038H103.857C105.794 171.038 107.364 172.607 107.364 174.541V206.07C107.364 208.005 105.794 209.573 103.857 209.573H87.4091C85.097 209.573 83.4178 207.377 84.0262 205.148L92.633 173.62Z" fill="#26282C"/>
<path d="M108.068 173.62C107.652 172.096 106.267 171.038 104.685 171.038H96.8442C94.9076 171.038 93.3377 172.607 93.3377 174.541V206.07C93.3377 208.005 94.9076 209.573 96.8442 209.573H113.292C115.604 209.573 117.284 207.377 116.675 205.148L108.068 173.62Z" fill="#26282C"/>
</g>
<path d="M19 132.503C19 117.025 31.5593 104.478 47.0519 104.478H152.948C168.441 104.478 181 117.025 181 132.503V210.975C181 226.453 168.441 239 152.948 239H47.052C31.5593 239 19 226.453 19 210.975V132.503Z" fill="#2AF588"/>
<path fill-rule="evenodd" clip-rule="evenodd" d="M77.9552 49.3429C73.1919 53.3053 69.4934 59.3541 69.4934 69.2995V104.478H130.702V69.2995C130.702 59.3541 127.004 53.3053 122.241 49.3429C116.945 44.9378 108.996 42.121 100.098 42.121C91.2 42.121 83.2506 44.9378 77.9552 49.3429ZM153.845 69.2995C153.845 2.2335 46.3506 2.23349 46.3506 69.2995V127.599H153.845V69.2995Z" fill="#2AF588"/>
<g filter="url(#filter2_i_120_154)">
<path d="M120.688 153.873C120.688 165.288 111.426 174.541 100 174.541C88.5742 174.541 79.3118 165.288 79.3118 153.873C79.3118 142.458 88.5742 133.204 100 133.204C111.426 133.204 120.688 142.458 120.688 153.873Z" fill="#26282C"/>
<path d="M92.633 173.62C93.0491 172.096 94.4347 171.038 96.016 171.038H103.857C105.794 171.038 107.364 172.607 107.364 174.541V206.07C107.364 208.005 105.794 209.573 103.857 209.573H87.4091C85.097 209.573 83.4178 207.377 84.0262 205.148L92.633 173.62Z" fill="#26282C"/>
<path d="M108.068 173.62C107.652 172.096 106.267 171.038 104.685 171.038H96.8442C94.9076 171.038 93.3377 172.607 93.3377 174.541V206.07C93.3377 208.005 94.9076 209.573 96.8442 209.573H113.292C115.604 209.573 117.284 207.377 116.675 205.148L108.068 173.62Z" fill="#26282C"/>
</g>
</g>
<defs>
<filter id="filter0_d_120_154" x="15" y="19" width="170" height="228" filterUnits="userSpaceOnUse" color-interpolation-filters="sRGB">
<feFlood flood-opacity="0" result="BackgroundImageFix"/>
<feColorMatrix in="SourceAlpha" type="matrix" values="0 0 0 0 0 0 0 0 0 0 0 0 0 0 0 0 0 0 127 0" result="hardAlpha"/>
<feOffset dy="4"/>
<feGaussianBlur stdDeviation="2"/>
<feComposite in2="hardAlpha" operator="out"/>
<feColorMatrix type="matrix" values="0 0 0 0 0 0 0 0 0 0 0 0 0 0 0 0 0 0 0.25 0"/>
<feBlend mode="normal" in2="BackgroundImageFix" result="effect1_dropShadow_120_154"/>
<feBlend mode="normal" in="SourceGraphic" in2="effect1_dropShadow_120_154" result="shape"/>
</filter>
<filter id="filter1_f_120_154" x="0.766233" y="0.766233" width="198.468" height="256.468" filterUnits="userSpaceOnUse" color-interpolation-filters="sRGB">
<feFlood flood-opacity="0" result="BackgroundImageFix"/>
<feBlend mode="normal" in="SourceGraphic" in2="BackgroundImageFix" result="shape"/>
<feGaussianBlur stdDeviation="9.11688" result="effect1_foregroundBlur_120_154"/>
</filter>
<filter id="filter2_i_120_154" x="79.3118" y="133.204" width="41.3767" height="79.1746" filterUnits="userSpaceOnUse" color-interpolation-filters="sRGB">
<feFlood flood-opacity="0" result="BackgroundImageFix"/>
<feBlend mode="normal" in="SourceGraphic" in2="BackgroundImageFix" result="shape"/>
<feColorMatrix in="SourceAlpha" type="matrix" values="0 0 0 0 0 0 0 0 0 0 0 0 0 0 0 0 0 0 127 0" result="hardAlpha"/>
<feOffset dy="2.80519"/>
<feGaussianBlur stdDeviation="5.61039"/>
<feComposite in2="hardAlpha" operator="arithmetic" k2="-1" k3="1"/>
<feColorMatrix type="matrix" values="0 0 0 0 0.164427 0 0 0 0 0.9625 0 0 0 0 0.531541 0 0 0 1 0"/>
<feBlend mode="normal" in2="shape" result="effect1_innerShadow_120_154"/>
</filter>
</defs>
</svg>
